<?xml version="1.0" standalone="no"?>
<!DOCTYPE svg PUBLIC "-//W3C//DTD SVG 20010904//EN"
 "http://www.w3.org/TR/2001/REC-SVG-20010904/DTD/svg10.dtd">
<svg version="1.0" xmlns="http://www.w3.org/2000/svg"
 width="240.000000pt" height="220.000000pt" viewBox="0 0 240.000000 220.000000"
 preserveAspectRatio="xMidYMid meet">

<g transform="translate(0.000000,220.000000) scale(0.100000,-0.100000)"
fill="#000000" stroke="none">
<path d="M230 1882 c0 -203 -3 -281 -12 -290 -7 -7 -43 -12 -90 -12 -43 0 -78
-2 -78 -5 0 -3 40 -113 90 -243 l90 -238 0 -532 0 -532 1065 0 1065 0 0 1065
0 1065 -1065 0 -1065 0 0 -278z m2115 -787 l0 -1050 -1050 0 -1050 0 -3 490
c-2 420 0 487 12 475 8 -8 45 -100 84 -205 l70 -190 84 -3 83 -3 140 387 c78
213 146 389 153 392 9 3 12 -51 12 -235 0 -131 4 -264 10 -296 18 -112 74
-187 179 -239 65 -32 214 -33 283 -1 66 30 132 95 159 156 24 51 24 57 27 435
l3 382 -80 0 -81 0 0 -347 c0 -206 -4 -363 -10 -385 -13 -44 -66 -93 -120
-109 -69 -21 -150 16 -188 84 -15 28 -17 73 -20 395 l-3 362 -102 0 c-112 0
-166 -11 -190 -38 -9 -10 -68 -166 -130 -348 -70 -203 -118 -329 -126 -329 -8
0 -59 130 -132 335 l-119 335 0 296 c0 163 3 299 7 302 3 4 477 6 1052 5
l1046 -3 0 -1050z"/>
<path d="M1610 1099 l0 -492 213 6 c237 6 288 16 358 70 23 17 56 57 73 87 27
49 31 64 31 135 0 112 -36 175 -123 219 l-33 17 40 44 c60 65 75 142 46 226
-50 140 -151 179 -467 179 l-138 0 0 -491z m416 287 c45 -45 47 -92 5 -138
l-29 -33 -109 0 -108 0 -3 89 c-2 49 -1 95 2 103 4 10 32 13 107 13 l101 0 34
-34z m20 -362 c78 -37 99 -125 44 -188 -41 -46 -86 -60 -205 -60 l-100 -1 -3
119 c-1 66 0 126 2 133 8 20 218 18 262 -3z"/>
</g>
</svg>
